<?xml version="1.0" standalone="no"?>
<!DOCTYPE svg PUBLIC "-//W3C//DTD SVG 20010904//EN"
 "http://www.w3.org/TR/2001/REC-SVG-20010904/DTD/svg10.dtd">
<svg version="1.0" xmlns="http://www.w3.org/2000/svg"
 width="25.000000pt" height="27.000000pt" viewBox="0 0 25.000000 27.000000"
 preserveAspectRatio="xMidYMid meet">

<g transform="translate(0.000000,27.000000) scale(0.100000,-0.100000)"
fill="#000000" stroke="none">
<path d="M113 233 c-7 -2 -13 -15 -13 -28 0 -13 -6 -25 -12 -27 -10 -4 -10
-10 0 -32 6 -15 12 -45 12 -66 0 -33 3 -40 20 -40 17 0 20 7 20 44 0 26 6 51
15 60 8 8 15 19 15 25 0 6 -7 11 -15 11 -8 0 -15 5 -15 10 0 6 7 13 15 16 23
9 18 34 -7 33 -13 0 -29 -3 -35 -6z"/>
</g>
</svg>
