<?xml version="1.0" standalone="no"?>
<!DOCTYPE svg PUBLIC "-//W3C//DTD SVG 20010904//EN"
 "http://www.w3.org/TR/2001/REC-SVG-20010904/DTD/svg10.dtd">
<svg version="1.0" xmlns="http://www.w3.org/2000/svg"
 width="28.000000pt" height="29.000000pt" viewBox="0 0 28.000000 29.000000"
 preserveAspectRatio="xMidYMid meet">

<g transform="translate(0.000000,29.000000) scale(0.100000,-0.100000)"
fill="#000000" stroke="none">
<path d="M70 249 c-36 -14 -40 -26 -40 -111 0 -96 12 -108 110 -108 98 0 110
12 110 108 0 42 -4 82 -8 89 -19 30 -119 43 -172 22z m146 -23 c16 -12 19 -27
19 -86 0 -85 -5 -90 -95 -90 -90 0 -95 5 -95 90 0 59 3 74 19 86 26 18 126 18
152 0z"/>
<path d="M196 211 c-4 -7 -5 -15 -2 -18 9 -9 19 4 14 18 -4 11 -6 11 -12 0z"/>
<path d="M100 180 c-24 -24 -25 -38 -4 -68 28 -41 104 -18 104 31 0 23 -36 57
-60 57 -11 0 -29 -9 -40 -20z m68 -12 c18 -18 14 -46 -7 -58 -25 -13 -48 -4
-56 21 -12 38 35 65 63 37z"/>
</g>
</svg>
